/* XPM */
static char *_265e17792464e03afae60ceffbf7c4fcrBLQnYI0y22s8Nx[] = {
/* columns rows colors chars-per-pixel */
"64 64 173 2 ",
"   c black",
".  c #271E2F",
"X  c #3B2B2C",
"o  c #3D2C26",
"O  c #2E2636",
"+  c #2C263A",
"@  c #2F2839",
"#  c #322733",
"$  c #352A34",
"%  c #3C2D31",
"&  c #332C3C",
"*  c #3B2F38",
"=  c #3F3032",
"-  c #35313E",
";  c #3D3139",
":  c #441F00",
">  c #472700",
",  c #4E2700",
"<  c #4D2D05",
"1  c #502700",
"2  c #522A00",
"3  c #5B2F00",
"4  c #4E300A",
"5  c #513007",
"6  c #5C3200",
"7  c #503008",
"8  c #59340E",
"9  c #5B380B",
"0  c #492E1D",
"q  c #482E15",
"w  c #4A301D",
"e  c #4E3C1A",
"r  c #553413",
"t  c #5A3611",
"y  c #523817",
"u  c #58391D",
"i  c #633600",
"p  c #643902",
"a  c #6C3C01",
"s  c #603709",
"d  c #60380B",
"f  c #703E00",
"g  c #412C25",
"h  c #412E29",
"j  c #493021",
"k  c #42312A",
"l  c #473532",
"z  c #523E38",
"x  c #6C400A",
"c  c #67420D",
"v  c #724103",
"b  c #794707",
"n  c #7E4907",
"m  c #7B4A0B",
"M  c #684916",
"N  c #6C4C1B",
"B  c #6A4410",
"V  c #4E4023",
"C  c #564120",
"Z  c #5D4E28",
"A  c #48453C",
"S  c #594C39",
"D  c #51533E",
"F  c #634224",
"G  c #6C4826",
"H  c #705020",
"J  c #644937",
"K  c #694C37",
"L  c #68563B",
"P  c #69593F",
"I  c #655333",
"U  c #755333",
"Y  c #393945",
"T  c #393946",
"R  c #3E4F5B",
"E  c #3C4650",
"W  c #3F505B",
"Q  c #42404E",
"!  c #555D49",
"~  c #4A4755",
"^  c #4C4954",
"/  c #404E58",
"(  c #43545C",
")  c #525859",
"_  c #6B5B41",
"`  c #64644A",
"'  c #6C6C58",
"]  c #746E53",
"[  c #415560",
"{  c #565560",
"}  c #52646B",
"|  c #5C746A",
" . c #4A6970",
".. c #53767A",
"X. c #54787B",
"o. c #587673",
"O. c #7A7961",
"+. c #667279",
"@. c #777775",
"#. c #70747E",
"$. c #814E0C",
"%. c #8A540E",
"&. c #814F10",
"*. c #835112",
"=. c #895411",
"-. c #8F5914",
";. c #885719",
":. c #8D5B1C",
">. c #925B16",
",. c #945E19",
"<. c #9B631C",
"1. c #97611B",
"2. c #895D2B",
"3. c #9E6720",
"4. c #9D6826",
"5. c #8C6336",
"6. c #9D6E36",
"7. c #A36B24",
"8. c #A77028",
"9. c #AC742C",
"0. c #B0782F",
"q. c #A06F36",
"w. c #AD7631",
"e. c #A27034",
"r. c #B67D34",
"t. c #B87F36",
"y. c #7C867B",
"u. c #BB8136",
"i. c #86806D",
"p. c #567E80",
"a. c #777F86",
"s. c #588386",
"d. c #658E8D",
"f. c #678A88",
"g. c #7F868E",
"h. c #7E8C83",
"j. c #669192",
"k. c #6D9595",
"l. c #6B989B",
"z. c #729999",
"x. c #7EA2A3",
"c. c #80868F",
"v. c #878D81",
"b. c #80928A",
"n. c #97998E",
"m. c #999B8F",
"M. c #808790",
"N. c #828991",
"B. c #9A9D91",
"V. c #89A29F",
"C. c #9DA195",
"Z. c #83A2A2",
"A. c #89A6A6",
"S. c #8BABAB",
"D. c #92ADAD",
"F. c #93A5A1",
"G. c #9BB3B2",
"H. c #98B8B7",
"J. c #97B7B8",
"K. c #99B9BA",
"L. c #94B5B6",
"P. c #A8AFA6",
"I. c #A7AEA5",
"U. c #A6B6B8",
"Y. c #AAB7B8",
"T. c #ABBBBC",
"R. c #A5B7B7",
"E. c #AEC1BF",
"W. c #B7C3BF",
"Q. c #AEC1C1",
"!. c #B1C4C3",
"~. c #B0C6C8",
"^. c #B6C9C9",
/* pixels */
"                                                                                                                                ",
"                                                                                                                                ",
"                                                                                                                                ",
"                                                                                                                                ",
"                                                                                                                                ",
"                                                                                                                                ",
"                                                                                                                                ",
"                                                                                                                                ",
"                                                                                                                                ",
"                                                                                                                                ",
"                                                                                                                                ",
"                                                                                                                                ",
"                                                                                                                                ",
"                                                                                                                                ",
"                                                                                                                                ",
"                                                                                                                                ",
"                                                                                                                                ",
"                                                                                                                                ",
"                                                                                                                                ",
"                                                                                                                                ",
"                                                                                                                                ",
"                                                                                                                                ",
"                                                                                                                                ",
"                                                                                                                                ",
"                                                      + + + O + + + + + +                                                       ",
"                                                      * ; = * * * * = * *                                                       ",
"                                                    z J K K K K K K K K J z                                                     ",
"                                      & @ @ @ + + * J 5.6.q.6.6.6.6.6.6.5.J * + @ @ @ @ @                                       ",
"                                    % X X % k = % l U e.u.u.t.t.t.u.u.t.q.U l k k l * X X %                                     ",
"                            . . + $ h w u u F F F G 2.w.u.u.u.u.u.u.u.u.w.2.G F F F u u 0 g & + O .                             ",
"                          Y @ @ @ $ j 9 x m ;.;.;.:.4.0.u.t.t.r.t.t.t.t.w.4.:.;.;.=.m x 8 j $ + & & &                           ",
"                          ) { ~ l X w x n %.>.1.<.7.9.0.t.t.t.r.r.t.r.r.r.9.7.<.1.>.%.$.d r X l ^ { )                           ",
"                      O ~ #.N.@.S q 8 m %.-.>.<.7.9.r.r.r.r.t.r.t.r.t.r.r.0.0.8.<.>.>.%.m 9 q S @.N.a.Q O                       ",
"                      O ~ M.Y.B._ 4 p $.>.>.,.<.9.w.r.r.t.t.r.t.t.r.r.t.r.r.0.8.<.>.>.>.m i 4 P n.U.M.~ O                       ",
"                      O ~ M.T.C._ < p &.>.>.>.1.7.9.w.r.r.t.t.r.r.r.t.r.r.0.8.7.,.,.>.,.=.p 7 _ C.T.M.~ O                       ",
"                      @ ^ M.T.B._ 4 p *.>.>.>.>.,.1.8.w.r.t.r.t.t.r.t.r.0.8.<.,.>.>.,.>.m p 7 _ B.T.M.~ O                       ",
"                      O ~ N.Y.B.P 2 p *.>.,.-.>.-.,.7.0.t.t.r.t.t.t.t.t.0.7.,.>.>.>.,.>.*.p 4 _ B.Y.M.~ O                       ",
"                      O ~ M.Y.B._ 4 p *.,.,.>.-.-.>.3.r.u.u.t.t.t.t.t.t.0.7.>.-.-.>.,.>.*.p 2 _ B.Y.M.^ @                       ",
"                      O ~ M.Y.B.P 4 6 *.-.,.>.-.>.,.7.9.t.t.r.r.r.r.t.r.9.7.,.>.-.>.,.:.m p < _ B.Y.M.^ @                       ",
"                      O ~ M.Y.B._ 4 6 m =.-.>.>.>.,.3.8.9.9.9.9.9.9.9.9.8.3.>.>.>.>.-.=.m 6 4 _ B.T.M.^ O                       ",
"                      O ^ M.Y.B._ < 3 a m =.>.,.,.,.1.<.3.3.<.3.3.4.3.3.<.1.,.,.>.>.=.m a 3 < _ B.Y.M.~ O                       ",
"                      O ~ M.Y.C._ < 2 i v m =.-.-.-.-.-.-.-.-.-.-.-.-.-.-.>.-.-.-.=.m v i 2 < _ B.Y.M.~ O                       ",
"                      O ~ M.Y.B._ < 2 i v b $.$.&.$.$.$.$.n n n n $.$.$.$.$.$.$.$.$.m f i 2 < _ C.Y.M.^ O                       ",
"                      O ~ M.Y.B._ < 2 p a v v v v v v v v v v v f f f f v v v v v v v a i 2 < _ B.Y.M.^ O                       ",
"                      O ^ M.Y.B._ > , 6 i i i i p i i i x x H H H N B p p i i i i i i i 6 1 < P B.Y.g.^ O                       ",
"                      O ~ M.Y.B.P > : 1 2 2 2 2 2 , , 2 9 I ] O.O.] I t 2 1 2 2 2 2 2 1 , : > P B.Y.g.~ O                       ",
"                      O ~ N.T.C._ 7 > > < < < < < < > < C ' b.V.A.b.' C < > < < < < < < < > 4 _ C.T.g.~ O                       ",
"                      @ ~ M.T.P.i._ L P _ P P _ P P I S ` y.D.K.K.D.i.` S I P P P _ _ P P L _ i.P.T.N.~ O                       ",
"                      O ~ g.T.W.I.B.m.m.m.m.B.m.B.n.v.y.v.V.E.~.~.T.F.h.y.v.n.C.B.B.B.B.B.B.B.P.!.T.c.~ O                       ",
"                      O ~ a.U.^.~.Q.E.E.Q.Q.E.Q.!.T.G.Z.A.H.Q.^.^.Q.H.A.Z.G.K.Q.T.Q.T.Q.T.!.T.!.^.Y.a.~ @                       ",
"                      O Q +.A.H.K.J.J.J.K.K.H.K.H.H.S.x.Z.D.K.E.E.K.D.x.x.S.L.L.K.K.J.J.J.J.L.J.H.A.+.Q #                       ",
"                      @ T } d.z.z.k.z.z.z.k.k.z.k.z.j.j.k.x.S.D.D.S.x.k.j.k.l.l.z.z.k.z.z.z.z.z.z.d.} T O                       ",
"                      @ T ( o.X.....................y.s.s.l.Z.A.A.Z.z.j.s.y.....................X.o.( T @                       ",
"                        Y E / / R ( R R R R R / R [  .s.l.l.Z.A.A.Z.z.j.s. .R R R R R R R R R R / / E Y                         ",
"                          & Y & & - - - - - & & & Y ( o.d.z.V.A.F.A.z.j.o.( Y & - & - - $ Y Y & Y Y &                           ",
"                          O O # X g g g g g g g g k A ) o.f.z.x.x.z.f.| ) A k g g g g o g g g o # . O                           ",
"                          @ O X 0 t 8 8 r 8 8 r 8 t y V D | d.l.l.d.| D V e 8 8 r 8 t 8 t 8 r 0 X O @                           ",
"                          + # h r a a a i a a a a p 6 < e ! | f.f.o.! e < 6 p a a a a i a a a r g & +                           ",
"                          + & g t a f f f f a f a a i 6 9 Z ` ` ` ` Z 6 6 i a v f f a f a f f t g # +                           ",
"                          + # g t a f f a a a a a a p p a c M N N M c x i p a a a a a a a a a t g & +                           ",
"                            & h y t d d d d d d d d d d d d s s s s d d d d d d d d d d d d 8 y o &                             ",
"                              X j j j j j j j j j j j j j j 0 0 0 0 0 j j j j j j j j j j j j j X                               ",
"                                $ $ $ $ $ $ * $ $ $ $ % $ $ $ $ $ % $ $ $ $ $ $ $ $ $ $ % $ $ $                                 ",
"                                + + @ + + + + + + + + + + + + + + + + & + + + @ + + + + + @ + @                                 "
};
