/* XPM */
static char *f511c0376cf84569f1bd6b392466c62dAe5RjeNOG4YvETJN[] = {
/* columns rows colors chars-per-pixel */
"64 64 173 2 ",
"   c black",
".  c #3D1B00",
"X  c #271E2F",
"o  c #291F30",
"O  c #3D2A26",
"+  c #392A2B",
"@  c #2D2435",
"#  c #272338",
"$  c #2D273B",
"%  c #2E283B",
"&  c #302737",
"*  c #352A34",
"=  c #332B3A",
"-  c #3A343C",
";  c #401F00",
":  c #442400",
">  c #4B2700",
",  c #4C2B02",
"<  c #46290C",
"1  c #542C00",
"2  c #582E00",
"3  c #563000",
"4  c #5C3200",
"5  c #5A370A",
"6  c #482D1C",
"7  c #432C15",
"8  c #4E3815",
"9  c #553312",
"0  c #503813",
"q  c #5B3813",
"w  c #633600",
"e  c #673A00",
"r  c #6C3C00",
"t  c #603709",
"y  c #60380A",
"u  c #703F02",
"i  c #442D24",
"p  c #402D29",
"a  c #463023",
"s  c #493021",
"d  c #4A352D",
"f  c #433029",
"g  c #41373A",
"h  c #533D33",
"j  c #5F491F",
"k  c #6A430C",
"l  c #734204",
"z  c #7B490A",
"x  c #674119",
"c  c #4F492F",
"v  c #5C4626",
"b  c #5F4A2B",
"n  c #4B4030",
"m  c #584238",
"M  c #58473B",
"N  c #56573E",
"B  c #714A20",
"V  c #7B5328",
"C  c #6A5A3E",
"Z  c #645C3A",
"A  c #353543",
"S  c #3A3544",
"D  c #373946",
"F  c #3A3946",
"G  c #3C3D4A",
"H  c #3A424F",
"J  c #3A4351",
"K  c #3E4B56",
"L  c #45414E",
"P  c #505444",
"I  c #4A4754",
"U  c #474955",
"Y  c #4D4954",
"T  c #4B4F5A",
"R  c #524F5B",
"E  c #465157",
"W  c #53515D",
"Q  c #6B5B40",
"!  c #586A5D",
"~  c #7C725B",
"^  c #455C63",
"/  c #495C63",
"(  c #535661",
")  c #545E67",
"_  c #4B696F",
"`  c #48626A",
"'  c #5A616A",
"]  c #59726A",
"[  c #4C6B71",
"{  c #586970",
"}  c #597A7D",
"|  c #51777B",
" . c #62666F",
".. c #6B6D76",
"X. c #6D6F78",
"o. c #636771",
"O. c #66757B",
"+. c #6E727B",
"@. c #637876",
"#. c #70747D",
"$. c #787875",
"%. c #844F0C",
"&. c #8A5512",
"*. c #8E5915",
"=. c #875310",
"-. c #965F18",
";. c #935B14",
":. c #9A631C",
">. c #865D31",
",. c #9A6420",
"<. c #8D6437",
"1. c #8E6538",
"2. c #A76D23",
"3. c #A7702A",
"4. c #AD7328",
"5. c #AF7832",
"6. c #B07932",
"7. c #66827C",
"8. c #8A8676",
"9. c #8D8878",
"0. c #567E81",
"q. c #777B83",
"w. c #5B8283",
"e. c #638785",
"r. c #648D8D",
"t. c #6E8387",
"y. c #7D848C",
"u. c #648F90",
"i. c #669293",
"p. c #699191",
"a. c #739495",
"s. c #769C9B",
"d. c #7A9D9D",
"f. c #7F9396",
"g. c #769EA1",
"h. c #7DA3A4",
"j. c #80878E",
"k. c #808790",
"l. c #828991",
"z. c #819B9C",
"x. c #819396",
"c. c #9B9E92",
"v. c #979B90",
"b. c #9EA396",
"n. c #A3A89E",
"m. c #8D9EA1",
"M. c #959EA2",
"N. c #83A3A3",
"B. c #88A6A6",
"V. c #8BACAC",
"C. c #95A2A5",
"Z. c #96ADAE",
"A. c #9BA7AA",
"S. c #8CB0AF",
"D. c #9BB4B4",
"F. c #97B2B2",
"G. c #A2ADB0",
"H. c #A5B2B4",
"J. c #ADBAB7",
"K. c #AAB7B8",
"L. c #A2BEBF",
"P. c #A3BFBF",
"I. c #A4BCBB",
"U. c #ABB9BA",
"Y. c #AFBCBD",
"T. c #B2BEBC",
"R. c #A6C0BF",
"E. c #B3C2BF",
"W. c #ACC2C2",
"Q. c #A4C0C0",
"!. c #B3C3C4",
"~. c #B8C9C8",
"^. c #B5C8C8",
/* pixels */
"                                                                                                                                ",
"                                                                                                                                ",
"                                                                                                                                ",
"                                                                                                                                ",
"                                                                                                                                ",
"                                                                                                                                ",
"                                                                                                                                ",
"                                                                                                                                ",
"                                                                                                                                ",
"                                                                                                                                ",
"                                                                                                                                ",
"                                                                                                                                ",
"                                                                                                                                ",
"                            X @ % % % $ $ $ $ # # # # # # # # # # # # # # # # # # $ $ % % % % % @ X                             ",
"                          = = = * & & & = & * * = * = = = = * = = = * = = = * * = = & & = & & & = = =                           ",
"                          W ( Y - O O O f d d h m m m m m m m m m m m m m m m m h d d i O O + g Y ( (                           ",
"                      % L #.l.$.M 7 < 9 q x B V >.<.<.<.<.<.<.<.1.1.1.1.1.1.<.>.V B x q 9 < 7 M $.l.q.I @                       ",
"                      % Y j.H.v.Q , 1 4 l z *.,.3.5.5.5.6.6.5.6.5.6.6.6.6.6.4.3.,.*.z l 4 3 < Q c.H.j.I %                       ",
"                      @ I k.T.b.Q , 1 w l %.;.:.2.4.4.4.4.4.4.4.4.4.4.4.4.4.3.2.:.-.%.l e 1 , Q b.Y.k.Y %                       ",
"                      @ I k.U.b.Q 9 1 w l %.*.:.:.:.:.:.:.:.:.:.:.:.:.:.:.:.:.:.:.;.%.l e > 9 Q c.U.k.I %                       ",
"                      % T y.K.c.Q , 1 w l z =.&.&.&.&.&.&.&.&.&.&.=.&.&.&.&.&.&.&.=.z l w > , Q c.K.k.I $                       ",
"                      % I y.K.c.Q , 1 w l l z z z z z z z z z z z z z z z z z z z z l r w 1 , Q c.K.k.I %                       ",
"                      % I k.K.c.Q , 1 w r r l l l r r l e l l r r l r r r l r l r l l e w 1 , Q c.K.k.I %                       ",
"                      $ I k.K.c.Q < > 4 w e e e r e r e r e r r e r e r r r e r r e e w 4 , < Q c.K.k.I @                       ",
"                      & Y y.U.c.Q < > , 3 w e r r r e l e e r r r r e r r r e l r e w 3 > : , Q c.K.k.I %                       ",
"                      % Y j.U.c.Q , ; > , 4 e e e e e e e e e e e e e e e e e e e w 4 , : : , Q c.K.k.Y %                       ",
"                      % I j.K.v.Z : . ; : > 1 4 2 3 2 2 4 2 3 3 2 4 2 4 2 4 2 2 4 2 > : : . > C c.K.j.I @                       ",
"                      @ I j.K.b.Q , ; : : > > > > , > > , > > > > > > > > , > > > > > > : . , Z c.K.j.I %                       ",
"                      % I j.U.n.~ b j v v v v v v v v v v v v v v v v v v v v v v v v v v j b ~ n.U.j.Y @                       ",
"                      @ I j.T.J.b.9.8.8.8.8.8.8.9.9.8.8.8.9.8.8.8.8.8.8.9.8.8.8.8.8.8.8.8.8.8.b.J.T.j.I %                       ",
"                      % I y.U.^.E.J.U.J.K.U.J.U.U.J.J.J.U.E.J.J.J.J.J.J.J.Y.U.J.J.J.J.J.H.J.J.!.^.U.y.I %                       ",
"                      % L +.Z.R.R.L.L.L.L.L.I.L.L.L.L.L.R.D.L.L.L.Q.L.L.Q.Q.D.R.L.L.L.L.L.L.L.Q.Q.Z.+.L %                       ",
"                      % G { s.h.h.h.h.h.h.h.h.h.h.h.h.h.h.h.h.h.h.h.h.h.h.h.h.h.h.h.h.h.h.h.h.h.h.a.{ G %                       ",
"                      % F / } w.w.w.w.0.w.w.w.w.w.w.w.w.w.w.w.w.w.w.w.w.w.w.w.w.w.0.w.w.w.w.w.w.w.0./ F &                       ",
"                        D K E ^ ^ ^ ^ ^ E ^ ^ ^ ^ ^ ^ ^ ^ ^ ^ ^ ^ ` ^ ^ ^ ^ ^ ^ / / ^ / ^ ^ / ^ ^ ^ U D                         ",
"                          D D F D D D D D D F F F D D D D F F F D D D D D D D D D A S S A D D D D D D                           ",
"                            & $ $ = F L L S = & % % & @ $ % @ & & & @ & % % @ % & = S L L S = & @ $                             ",
"                              @ @ = R X.X.W - o % @ @ & @ @ o o o o @ % & % & o @ = R #.#.R = @ o                               ",
"                                @ F ..M.C.X.S @ @ & & & = = = = = = * & = & & @ @ S X.M.M...S @                                 ",
"                                o S #.H.H.#.S X @ @ @ @ = G I T T I H = @ @ @ o o S #.H.H.#.S o                                 ",
"                                o S #.G.H.#.S X o @ o @ S ( O.t.t.O.( S @ o @ o X - X.G.G.#.F @                                 ",
"                                & F X.G.H.q.I - - D - A U O.z.V.V.z.O.U - S S S S I q.H.G.+.F o                                 ",
"                                o F #.G.T.M.q...X.X. .' @.x.D.R.P.D.x.@.) o.X.X...q.M.!.G.X.F @                                 ",
"                                o S X.G.^.E.G.G.G.G.m.f.x.Z.W.^.^.!.Z.x.x.B.A.H.G.G.!.^.G...F o                                 ",
"                                o S o.M.W.!.W.W.R.R.F.B.B.F.E.^.^.Y.D.B.B.D.Q.W.W.W.W.W.C.o.S o                                 ",
"                                o S ) a.V.S.S.V.S.V.h.d.d.V.F.H.I.D.B.d.s.h.V.V.S.V.S.V.a.) A @                                 ",
"                                & A E 0.u.u.r.r.r.r.r.r.p.d.B.V.V.N.d.p.r.r.r.r.r.r.p.u.} T A @                                 ",
"                                & = J / [ [ _ _ _ [ | w.u.s.N.B.B.N.s.r.w.| [ [ _ _ [ _ / J = @                                 ",
"                                & = A G J J J H H U ` w.i.d.N.B.B.N.s.i.} ` K G H K J J G A = &                                 ",
"                                & & = * * = * * * - E [ e.a.h.N.N.h.a.e.] E - * * * * * = & = &                                 ",
"                                & = + i 6 6 6 6 6 6 n P ! 7.a.h.s.a.7.! P n s 6 6 6 6 6 i + & &                                 ",
"                                & * i 9 y y y y 5 5 5 0 c ! w.p.i.e.! c 8 9 5 y y y y y 9 i * =                                 ",
"                                % * s y r u r r l e 4 1 9 N ] @.7.] N 0 1 2 e r r r l r y s * $                                 ",
"                                % * s y r r r r l e w w 5 v Z Z Z N j e w w r u r r u r y s * &                                 ",
"                                % * s y r r r r e r r e l k k k k k k e e r r r r r r r y s * $                                 ",
"                                & * s y r r r r r e r r e e r e r e e l r r r e r r r r y s * $                                 ",
"                                $ * s y r r r r r r r r r r r r r r r r r r e r r e r r y s * &                                 ",
"                                & * s y r r r r r r r r r r r r r e r r r r r r r r u r y s * $                                 ",
"                                $ * s y u r r r r r r r r r u r r u r r u r r r r u u u y s * $                                 ",
"                                $ * s t r u r r r r r r r r r r r r r r r r r r r r r r y s * &                                 ",
"                                % * s q t t t t t t t t t t t t t t t y y y y y y y y y q i * $                                 ",
"                                    f i s s s s s s s s s s s s s s s s s s s s s 6 s s i f                                     ",
"                                      * * * * * * * * * * * * * * * * * * * * * * * * * *                                       ",
"                                      % % % $ % $ $ $ $ % $ % % % % $ % $ $ & $ $ % $ $ %                                       "
};
