/* XPM */
static char *_ee2c55e40d3439d8d6beff29d157f7aCXRwvuS9kqQW0P1T[] = {
/* columns rows colors chars-per-pixel */
"64 64 172 2 ",
"   c black",
".  c #3C240D",
"X  c #3E2711",
"o  c #271E2F",
"O  c #281E2F",
"+  c #291F30",
"@  c #362626",
"#  c #3B2B2C",
"$  c #2D2535",
"%  c #2E273A",
"&  c #2F283A",
"*  c #302737",
"=  c #342A35",
"-  c #302738",
";  c #332B3B",
":  c #382F39",
">  c #36313E",
",  c #3F3338",
"<  c #482700",
"1  c #492901",
"2  c #482707",
"3  c #542E01",
"4  c #5B2F00",
"5  c #5A3100",
"6  c #5A340E",
"7  c #5C380A",
"8  c #492E1D",
"9  c #4D2D11",
"0  c #4F3015",
"q  c #4D361B",
"w  c #553413",
"e  c #5A3611",
"r  c #523817",
"t  c #5A3819",
"y  c #633500",
"u  c #653801",
"i  c #6C3C00",
"p  c #603709",
"a  c #60380A",
"s  c #703E00",
"d  c #623E1E",
"f  c #412C25",
"g  c #412E29",
"h  c #493021",
"j  c #42312A",
"k  c #503A2E",
"l  c #413030",
"z  c #6B430E",
"x  c #684916",
"c  c #64401F",
"v  c #6A4715",
"b  c #7B4E16",
"n  c #4E4023",
"m  c #5E4C28",
"M  c #48453C",
"N  c #5D4938",
"B  c #564735",
"V  c #51533E",
"C  c #6D4E29",
"Z  c #6D5025",
"A  c #765526",
"S  c #353241",
"D  c #3A3442",
"F  c #393946",
"G  c #3C3D4A",
"H  c #433C49",
"J  c #3B424D",
"K  c #3C4552",
"L  c #3E4E5A",
"P  c #3F515C",
"I  c #41404D",
"U  c #504747",
"Y  c #555D49",
"T  c #474351",
"R  c #494653",
"E  c #4B4855",
"W  c #4C4D59",
"Q  c #424854",
"!  c #45545C",
"~  c #4D505B",
"^  c #52515E",
"/  c #585953",
"(  c #63664A",
")  c #7F6743",
"_  c #485D64",
"`  c #415560",
"'  c #595763",
"]  c #5B5B66",
"[  c #5C5C69",
"{  c #565661",
"}  c #4D696F",
"|  c #4D676D",
" . c #5B646D",
".. c #52646B",
"X. c #5C746A",
"o. c #4E6B72",
"O. c #5F6B72",
"+. c #537679",
"@. c #54797C",
"#. c #5D7775",
"$. c #6F6A67",
"%. c #65636B",
"&. c #666A75",
"*. c #647279",
"=. c #6F717A",
"-. c #89591E",
";. c #86571C",
":. c #856739",
">. c #8A6D41",
",. c #967646",
"<. c #A07E4C",
"1. c #887E6C",
"2. c #A2804D",
"3. c #9B8C6D",
"4. c #8E8B79",
"5. c #9A927A",
"6. c #567E80",
"7. c #587E80",
"8. c #777D84",
"9. c #5B8586",
"0. c #5C8A8A",
"q. c #568084",
"w. c #658E8D",
"e. c #678988",
"r. c #74858A",
"t. c #7D848D",
"y. c #77888D",
"u. c #798C90",
"i. c #669191",
"p. c #6F9696",
"a. c #6B989B",
"s. c #709897",
"d. c #729999",
"f. c #799193",
"g. c #7EA09F",
"h. c #7DA2A2",
"j. c #84898C",
"k. c #898A80",
"l. c #9C9A8B",
"z. c #838B91",
"x. c #899499",
"c. c #939B9E",
"v. c #A6A18D",
"b. c #A7A490",
"n. c #ABA692",
"m. c #B3AC96",
"M. c #939CA1",
"N. c #83A2A2",
"B. c #89A5A6",
"V. c #8BABAA",
"C. c #94A2A6",
"Z. c #92AEAE",
"A. c #9CA6AA",
"S. c #94B3B5",
"D. c #99B5B5",
"F. c #99B8B7",
"G. c #9CBAB9",
"H. c #A1ACAD",
"J. c #B2B6A8",
"K. c #ACB8B6",
"L. c #A6B6B8",
"P. c #A9B7B9",
"I. c #AABABB",
"U. c #A2B9B9",
"Y. c #B1BEBC",
"T. c #B0BBB6",
"R. c #AFC1BF",
"E. c #B2BFC0",
"W. c #AFC1C1",
"Q. c #B1C3C1",
"!. c #B6C9C8",
"~. c #BDC8C1",
/* pixels */
"                                                                                                                                ",
"                                                                                                                                ",
"                                                                                                                                ",
"                                                                                                                                ",
"                                                                                                                                ",
"                                                                                                                                ",
"                                                                                                                                ",
"                                                                                                                                ",
"                                                                                                                                ",
"                                                                                                                                ",
"                                                                                                                                ",
"                                                                                                                                ",
"                                                                                                                                ",
"                                                                                                                                ",
"                                                                                                                                ",
"                                                                                                                                ",
"                                                                                                                                ",
"                                                                                                                                ",
"                                                                                                                                ",
"                            $ $ ; $ & & - % & & - - - - - - $ - - - - - - - - - $ ; $ & & & & ; & $                             ",
"                          T E H : # # # # # l l g l l l l l l l l # l l l l l l l l # # # # # l H R T                           ",
"                        T &.8.$.N 0 9 w w t t C d C c c Z d c c Z d c d d C d c Z t t 0 9 9 9 N $.8.&.T                         ",
"                      $ E t.H.l.>.a u a z b ;.-.-.-.-.-.;.;.-.-.-.-.-.-.-.-.-.-.-.-.b z a a a >.l.H.t.R $                       ",
"                      $ R j.Y.J.3.>.:.:.>.,.<.<.<.<.<.<.<.<.2.<.<.<.<.<.2.2.2.<.<.<.,.>.:.:.>.3.J.R.j.R $                       ",
"                      $ E j.Y.~.J.b.v.v.b.n.m.m.m.m.m.m.m.m.m.m.m.m.m.m.m.m.m.m.m.m.n.b.v.v.b.J.~.E.j.R &                       ",
"                      $ T r.L.!.!.E.E.E.E.Q.Q.Q.R.Q.R.Q.W.E.Q.R.Q.Q.Q.E.Q.Q.Q.R.R.W.Q.R.R.R.Q.Q.!.L.8.R $                       ",
"                      * I *.B.F.S.S.S.S.S.S.S.S.S.S.S.S.S.S.S.S.S.S.S.S.S.S.S.S.S.S.S.S.S.S.S.S.S.B.*.I *                       ",
"                      $ G ..e.d.d.p.p.a.p.p.s.s.p.s.p.p.p.s.a.d.d.p.p.p.p.p.p.p.p.p.p.p.s.s.d.d.d.w...G *                       ",
"                      * F _ q.0.0.0.0.0.0.0.0.0.0.0.0.0.9.0.0.0.0.0.0.0.9.0.0.0.0.0.0.0.0.0.0.w.0.q._ F $                       ",
"                      * F _ q.0.0.0.0.0.0.0.0.0.0.0.0.0.0.0.0.0.0.0.0.0.0.0.0.0.0.0.0.0.0.0.0.0.0.q._ G &                       ",
"                      - F _ q.0.0.9.9.9.9.9.9.9.9.9.9.9.9.9.9.9.q.9.e.0.9.9.0.q.9.0.9.0.9.9.9.9.9.7._ F &                       ",
"                      - F ! | o.o.} } o.o.o.o.o.o.o.o.o.o.o.o.o.o.o.o.o.o.o.o.o.o.o.o.o.o.| } o.o.| ! F -                       ",
"                          J K J J J J H K J K K K J K K K J K K K K K K K K K K I K K K J J K G K K J                           ",
"                          - - S D D D : : : = : : : : = : : = : = : = : : # : : : = : = , D D D ; ; -                           ",
"                          $ - H ] %./ k 8 8 8 8 0 8 8 8 8 8 8 8 8 8 8 8 8 8 8 8 8 8 8 8 k / %.' H * $                           ",
"                          + - { j.c.1.C p 5 p p 7 7 a a a a a 7 a a a a a p p 7 p p 5 7 C 1.c.j.^ ; +                           ",
"                          o ; [ M.T.5.A u y u u u u u u u u u u u y u u u u u u y u y u A 5.Y.M.[ ; o                           ",
"                          o ; [ M.Y.5.Z 3 3 4 3 5 5 5 5 5 5 5 5 5 5 5 5 5 5 5 5 5 3 3 3 C 5.Y.M.[ ; o                           ",
"                          o ; ] M.P.4.C < < 1 1 1 1 1 1 1 1 1 1 1 1 1 1 1 1 < 1 2 < < < C 4.K.M.[ ; +                           ",
"                          $ ; [ M.L.k.B . . X X X X X X X X X X X X X X X X X X . . . X B k.K.M.[ ; +                           ",
"                          O > ] M.L.j.U @ X $ @ @ @ @ @ @ @ @ @ @ @ @ @ @ @ @ @ @ @ @ @ U j.K.M.[ ; o                           ",
"                          O ; ] M.P.j.E * $ $ * * - = - * ; * * * * * * * * = * = * $ $ E z.K.M.[ ; o                           ",
"                          O ; ] M.P.z.R $ $ - & & & & & - * $ $ $ $ * & & & & & % % $ $ E z.K.M.[ : o                           ",
"                          O ; [ M.P.z.W $ $ - - - - & $ * & & * * * & * * & & & & $ $ $ E z.I.M.] ; o                           ",
"                          + ; ] M.I.j.E $ $ $ $ $ $ $ $ & D G I J G D ; * $ $ * * * $ $ T j.K.M.] > o                           ",
"                          + ; ] M.L.j.T $ o $ $ $ $ $ $ > W O.*.*.O.W S $ $ $ $ $ $ o + T u.L.M.] ; o                           ",
"                          O ; [ M.K.z.W - * & - : ; - - J &.f.N.x.f.O.I * & ; ; & ; * ; W z.K.M.[ ; +                           ",
"                          O ; [ M.E.C.=.] ] ] ] [ ] ^ ~  .r.Z.G.G.Z.y. .W ^ ] ] ] ] ' ] =.C.E.M.[ ; o                           ",
"                          o ; ] M.Q.E.A.M.M.M.M.M.M.f.r.f.C.R.Q.Q.R.C.f.r.z.c.M.M.M.c.M.A.E.Q.M.] ; O                           ",
"                          O ; { x.W.!.W.W.E.W.W.Q.I.D.B.B.D.W.!.!.W.D.B.B.S.I.W.E.E.E.E.Q.!.E.x.^ > +                           ",
"                          O ; ^ r.Z.F.F.F.D.D.F.D.S.V.d.h.Z.G.R.R.G.V.N.h.V.S.F.S.S.F.F.F.G.Z.r.~ ; +                           ",
"                          $ ; Q #.p.a.s.a.a.d.s.s.s.p.p.p.g.V.Z.Z.V.g.p.i.p.s.s.a.a.d.d.a.d.i.#.Q - $                           ",
"                          $ - J _ +.@.+.+.+.+.+.+.+.6.9.i.a.N.B.B.N.d.i.0.@.@.+.@.+.+.+.+.@.+._ J - $                           ",
"                          $ - S J L P L P L P L L ! } q.i.d.N.B.B.N.d.i.q.o.` L P P L P L ! L K D - *                           ",
"                          * - ; : : > > > > : ; ; F ! @.w.d.N.B.B.B.d.i.+.! F : : > > > > > S ; ; * *                           ",
"                          - * = # f f f f # f # f j M / X.e.g.g.h.d.e.X.Y M j f @ f f # f f f # = * &                           ",
"                          & & # 8 e e e 6 6 e 6 6 e r n V X.w.a.s.i.X.V n r e 7 e w 6 w 6 6 e 8 # - %                           ",
"                          & * g w i i i i u i i i i 5 1 r Y #.e.e.#.Y q 1 5 u z i i i i i i u e j - %                           ",
"                          % = g e i s s i i s s i i u 5 7 m ( ( ( ( m 7 5 y z i s i s i i s i e g * %                           ",
"                          % = g e i s i i i i i i i i u 7 z x x x x z u u i i i i i i i i i i e g = &                           ",
"                            - j w a a a a a a a a a a a p p p p p p a p a a a a a a a a a a 7 w g *                             ",
"                              # f h h h h h h h h h h h h h 8 8 8 8 8 h h h h h h h h h h h h f #                               ",
"                                ; = = = = = = = : * : = = = = = = = ; = = = = = = = = : = = : =                                 ",
"                                % & $ % % % % % $ & & $ % % ; & $ - % % % & & $ % % $ $ & - & &                                 "
};
