/* XPM */
static char *d829552b7c8548cdc23205cc889492afLRSssdPKEJuIJGmj[] = {
/* columns rows colors chars-per-pixel */
"64 64 156 2 ",
"   c black",
".  c #3B230C",
"X  c #3E2711",
"o  c #271D2E",
"O  c #281F30",
"+  c #362727",
"@  c #3F2A24",
"#  c #37292F",
"$  c #3B2B2D",
"%  c #33252B",
"&  c #2C2334",
"*  c #2D273B",
"=  c #2F283A",
"-  c #312734",
";  c #342934",
":  c #392E37",
">  c #322A3A",
",  c #382E38",
"<  c #35313E",
"1  c #462500",
"2  c #492901",
"3  c #512700",
"4  c #542C00",
"5  c #5B2F00",
"6  c #5B3200",
"7  c #5C360B",
"8  c #5D390A",
"9  c #462B19",
"0  c #492E1D",
"q  c #4A311F",
"w  c #4E3C1A",
"e  c #543415",
"r  c #533816",
"t  c #513319",
"y  c #633600",
"u  c #653A04",
"i  c #6C3C00",
"p  c #603709",
"a  c #60380A",
"s  c #703E00",
"d  c #412C24",
"f  c #402E28",
"g  c #493121",
"h  c #42312A",
"j  c #423636",
"k  c #67420D",
"l  c #6C4410",
"z  c #684916",
"x  c #694B1A",
"c  c #4E4023",
"v  c #5D4E28",
"b  c #48453C",
"n  c #51533E",
"m  c #7A5623",
"M  c #7B5827",
"N  c #363241",
"B  c #3C3745",
"V  c #3C3845",
"C  c #3E3D4A",
"Z  c #403B49",
"A  c #3A414C",
"S  c #3F4C56",
"D  c #3E4F5B",
"F  c #41404D",
"G  c #555D49",
"H  c #414D57",
"J  c #4D4A56",
"K  c #4C4F5A",
"L  c #42525B",
"P  c #4A565F",
"I  c #515F54",
"U  c #52525E",
"Y  c #646A4F",
"T  c #626244",
"R  c #7E745D",
"E  c #415560",
"W  c #565560",
"Q  c #595763",
"!  c #5B5A66",
"~  c #595C6A",
"^  c #4E6A6F",
"/  c #5A636B",
"(  c #5C746A",
")  c #4A6970",
"_  c #5F6B72",
"`  c #53767A",
"'  c #54787B",
"]  c #5E7B72",
"[  c #63636D",
"{  c #787366",
"}  c #696C75",
"|  c #6C6F79",
" . c #666A73",
".. c #627178",
"X. c #6D717A",
"o. c #71757D",
"O. c gray45",
"+. c #816336",
"@. c #857658",
"#. c #8D7C5B",
"$. c #9C9175",
"%. c #9E9479",
"&. c #567E80",
"*. c #568084",
"=. c #5A8687",
"-. c #628484",
";. c #6B8A86",
":. c #658E8D",
">. c #77888D",
",. c #748489",
"<. c #798C90",
"1. c #669191",
"2. c #6D9595",
"3. c #6B989B",
"4. c #799193",
"5. c #709897",
"6. c #739999",
"7. c #7EA09F",
"8. c #7DA2A2",
"9. c #81888E",
"0. c #818E93",
"q. c #8A9197",
"w. c #809699",
"e. c #919A9F",
"r. c #A19A81",
"t. c #929DA4",
"y. c #83A2A2",
"u. c #89A6A6",
"i. c #8BABAA",
"p. c #94A3A6",
"a. c #99A7AA",
"s. c #92ADAD",
"d. c #9DA9AC",
"f. c #95B5B4",
"g. c #99B6B5",
"h. c #99B8B7",
"j. c #9CBAB9",
"k. c #A7AFA7",
"l. c #A9AFA6",
"z. c #A4AFAC",
"x. c #ACB1A7",
"c. c #B1B9AF",
"v. c #B1B4A3",
"b. c #A1AEB1",
"n. c #A3B0B3",
"m. c #AFBAB4",
"M. c #AAB6B9",
"N. c #A2B9B9",
"B. c #AABDBD",
"V. c #B0BBB6",
"C. c #AEC1C1",
"Z. c #B2C7C6",
"A. c #B7C6C6",
"S. c #B6C4C1",
"D. c #BBC8C2",
"F. c #B7C9C9",
/* pixels */
"                                                                                                                                ",
"                                                                                                                                ",
"                                                                                                                                ",
"                                                                                                                                ",
"                                                                                                                                ",
"                                                                                                                                ",
"                                                                                                                                ",
"                                                                                                                                ",
"                                                                                                                                ",
"                                                                                                                                ",
"                                                                                                                                ",
"                                                                                                                                ",
"                                                                                                                                ",
"                                                                                                                                ",
"                                                                                                                                ",
"                                                                                                                                ",
"                                                                                                                                ",
"                                                                                                                                ",
"                                                                                                                                ",
"                                                                                                                                ",
"                                                                                                                                ",
"                                                                                                                                ",
"                                                                                                                                ",
"                                                                                                                                ",
"                                  = = * * * * > * = * * * * * > * * * * * > * * & = * * * * *                                   ",
"                                ; ; ; ; ; ; ; ; ; ; ; ; ; ; ; ; ; , ; ; ; ; ; ; ; ; , ; ; ; ; ;                                 ",
"                              $ g q q q q q q q q q q q q q q q q q q q q q q q q q q q q g q g $                               ",
"                            ; h t a a a a p p p a a p a a p p p a a a a a p a p a a a p p u a e h ;                             ",
"                          * - @ t 8 p p p p 8 8 p p 8 p p p 8 8 p 8 p 8 p 8 p p p 8 p p p p 8 t $ - &                           ",
"                        o & & % d 9 9 9 9 9 9 9 9 9 9 9 9 9 9 9 9 9 9 9 9 9 9 9 9 9 9 9 9 9 9 d % & & O                         ",
"                      > > > > < : : : : : : : , : : : : : : : : : : : : : : : : : : : : : : , , , > > > >                       ",
"                    J W ! ! ~ ~ ~ ~ ~ ~ ! ~ ~ ~ ~ ~ ~ ~ ~ ~ ~ ~ ~ ! ~ ~ ~ ~ ~ ~ ~ ~ ~ ~ ~ ~ ~ ~ ~ ! ~ ! W J                     ",
"                  B ~ 0.t.t.t.t.t.t.t.p.t.t.t.t.t.t.t.t.t.t.t.p.t.t.t.t.t.t.p.t.t.t.t.t.p.t.t.t.t.t.t.t.<.[ B                   ",
"                & B } d.S.S.V.m.m.V.M.m.m.m.m.V.m.V.B.m.m.m.m.m.m.m.m.m.m.m.m.M.V.V.m.m.m.m.m.m.M.V.S.A.d.| B O                 ",
"                & B | b.D.v.r.$.%.%.%.%.%.%.%.%.%.%.%.%.%.%.%.%.%.%.%.%.%.%.%.%.%.%.%.%.%.%.%.$.%.%.v.D.b.| B &                 ",
"                O B | b.c.$.+.m M M M M M M M M M M M M M M M M M M M M M M M M M M M M M M M M m +.$.c.b.| B O                 ",
"                O Z | z.x.#.l y y y y y u y y y y y y y y y y y y u y y y y y y y y y y y y y y y l #.x.d.X.B &                 ",
"                & B | b.l.@.8 3 3 4 4 4 4 4 4 4 4 4 4 4 4 4 4 4 4 4 4 4 4 4 4 4 4 4 4 4 4 4 3 3 3 8 @.x.n.X.B &                 ",
"                & B X.b.k.R t 1 1 2 2 2 2 2 2 2 2 2 2 2 2 2 2 2 2 2 2 2 2 2 2 2 2 2 2 2 2 2 1 1 1 r R k.b.X.V O                 ",
"                & B | b.k.{ q . . X X X X X X X X X X X X X . 9 X X X X X X X X X X X . . 9 9 . . g { z.b.X.V &                 ",
"                O Z X.b.b.O.j + + + + + + % + + % + + + + + % + + + + + + + + + + % + + % + + + + j O.b.z.X.B O                 ",
"                O B X.z.b.o.B & & - & ; > ; ; ; ; - ; > = ; - > ; = = ; = ; ; = ; - = ; - - > - & B o.b.b.| Z &                 ",
"                O Z | z.b.o.B & & * > * = = * * = = = = * * & & & & & = = = = = = = = = = = > O & B o.b.z.| B O                 ",
"                O Z X.b.b.o.Z O & > = > = = > = = = = > - * - = = = = > = = = = > = = = = > = = & B o.b.b.X.B &                 ",
"                & B X.b.b.o.B O & - - = & = = & & > & & > N A F A Z N > - & = - - = = = = - = & O B o.z.b.X.B O                 ",
"                O B X.b.b.X.N o O & & & & & & & & & & & < J _ ...._ P N & & & & O & O & O & O O O N | b.b.X.B &                 ",
"                O Z X.b.b.o.Z = > > > > > > , > > > = ; F  .4.y.w.4._ F > > > > > , N > , N > > > Z o.b.b.X.B &                 ",
"                O Z | b.V.q.[ ! ! ! ! ! [ ! ! ~ ! ! U P / >.s.j.N.s.>./ K U ! ! ! ! ! ! ! ! ! ! ! [ q.B.z.| B &                 ",
"                & B X.b.A.M.p.t.e.t.e.t.e.t.t.e.p.e.0.,.<.p.B.Z.Z.B.i.<.,.9.e.p.e.t.e.t.e.t.t.t.e.t.M.A.b.X.V O                 ",
"                & B [ d.A.A.C.C.C.C.C.C.C.C.C.S.C.B.f.u.u.g.C.F.F.S.g.u.u.f.B.C.C.C.S.C.C.C.B.C.C.C.A.A.a. .B &                 ",
"                & N / w.f.j.g.g.g.g.g.g.g.g.g.g.g.f.u.7.y.s.N.C.B.N.s.7.y.i.f.g.g.g.g.g.g.g.j.g.h.g.j.f.w.~ B &                 ",
"                & N E -.2.6.5.5.6.5.3.6.5.5.5.5.5.5.2.1.2.7.i.s.s.i.7.2.1.2.5.3.6.5.5.5.5.5.5.5.5.5.6.5.-.P N &                 ",
"                & < H ) ` ` ` ` ' ' ` ` ` ` ` ` ` ' ' =.1.6.y.u.u.y.6.1.=.&.` ` ` ` ` ` ` ` ` ` ` ` ' ' ^ H N &                 ",
"                    A S L L D D D D D D D D D H D L ^ *.1.7.y.u.u.y.6.1.*.^ L D D D D D D D D D D D D L S A                     ",
"                      N < < N < N > < < N < > < < V L ' =.6.y.u.u.y.6.1.` L V < < < < < N < < > N N < > <                       ",
"                      & - # @ d d d d f @ d @ d @ h b I ] ;.6.8.8.6.;.( I b h @ d @ d @ d d d d d @ # - &                       ",
"                      & ; g e 7 7 e 7 e 7 e e 7 7 e r c n ( :.3.3.:.( n c w 8 e e 7 7 e 7 e e 7 7 t g ; &                       ",
"                      = $ t a i i i y i i i i i i i 6 2 w G ..-.-...G w 4 6 u i i i u i y i i i i u t $ >                       ",
"                      = $ t i s s s s s i s i s i i y 6 8 v T Y Y T v 6 5 y i k s i s s s s s s s i t $ =                       ",
"                      > $ t i i i i i i i i i i i i i y k k l x x z k k y i i s i i i i i i i i i u t $ =                       ",
"                      = : q 7 a a a p a a a a a a a a a a a a p a a a a a a a a p a a a a a a a a 7 q $ =                       ",
"                        $ d g g q 0 g g g g g g g g g g g 0 0 0 0 0 0 0 g g g g g g g g g g g q g g d :                         ",
"                          ; ; , ; ; ; ; : ; ; ; ; ; , ; ; ; ; ; ; ; ; ; ; ; : ; ; ; ; ; ; ; ; ; ; ; ;                           ",
"                          * * * * * = * * * * * = * * * * = = = = = * = = * * * * * > * * * * * = = =                           "
};
