/* XPM */
static char *_3971856ea3e46f0a03d1af46b5e1ad9zl8aVGH73OUTvZkd[] = {
/* columns rows colors chars-per-pixel */
"64 64 155 2 ",
"   c black",
".  c #3C230D",
"X  c #3E2711",
"o  c #271D2E",
"O  c #281F31",
"+  c #362727",
"@  c #372628",
"#  c #3B2B2B",
"$  c #2D2535",
"%  c #2D273B",
"&  c #2F283A",
"*  c #322733",
"=  c #342934",
"-  c #392E37",
";  c #332B3B",
":  c #382E38",
">  c #35313E",
",  c #452300",
"<  c #482700",
"1  c #492901",
"2  c #512600",
"3  c #542C00",
"4  c #5B2F00",
"5  c #573000",
"6  c #5B3200",
"7  c #5C360B",
"8  c #5C380A",
"9  c #422B16",
"0  c #462B19",
"q  c #492E1D",
"w  c #4A311F",
"e  c #4E3C1A",
"r  c #563412",
"t  c #5A3611",
"y  c #523817",
"u  c #633600",
"i  c #653A03",
"p  c #6C3C00",
"a  c #603709",
"s  c #60380A",
"d  c #703E00",
"f  c #412C25",
"g  c #412E28",
"h  c #473022",
"j  c #493021",
"k  c #42312A",
"l  c #67420D",
"z  c #684916",
"x  c #694B1A",
"c  c #4E4023",
"v  c #5D4E28",
"b  c #48453C",
"n  c #51533E",
"m  c #7A5623",
"M  c #7B5827",
"N  c #7D5B2B",
"B  c #765F3B",
"V  c #363341",
"C  c #393443",
"Z  c #393945",
"A  c #3D3D4A",
"S  c #3C4650",
"D  c #3E4F5B",
"F  c #3F505B",
"G  c #41404D",
"H  c #555D49",
"J  c #474351",
"K  c #4A4754",
"L  c #404E58",
"P  c #4C4F5A",
"I  c #504E5A",
"U  c #43545C",
"Y  c #515F54",
"T  c #52525E",
"R  c #6E5D41",
"E  c #665C4C",
"W  c #615C5C",
"Q  c #646A4F",
"!  c #626244",
"~  c #415560",
"^  c #575662",
"/  c #585662",
"(  c #5B5B66",
")  c #5A5C6A",
"_  c #5C636C",
"`  c #52646C",
"'  c #5C746A",
"]  c #4A6970",
"[  c #5F6B72",
"{  c #517074",
"}  c #5E7B72",
"|  c #53767A",
" . c #54787B",
".. c #6C6F78",
"X. c #647279",
"o. c #80673E",
"O. c #927F5C",
"+. c #9E9479",
"@. c #9D9275",
"#. c #567E80",
"$. c #777F86",
"%. c #568084",
"&. c #5A8687",
"*. c #618784",
"=. c #6B8A86",
"-. c #658E8D",
";. c #698C8D",
":. c #7E848B",
">. c #77888D",
",. c #748489",
"<. c #7F8790",
"1. c #798C90",
"2. c #669191",
"3. c #6D9595",
"4. c #6B989B",
"5. c #799193",
"6. c #709897",
"7. c #739999",
"8. c #7EA09F",
"9. c #7DA2A2",
"0. c #81878E",
"q. c #81888E",
"w. c #808790",
"e. c #818E93",
"r. c #889096",
"t. c #9B9F95",
"y. c #939B9E",
"u. c #A2A291",
"i. c #ABAA96",
"p. c #ACAF9F",
"a. c #939EA4",
"s. c #83A2A2",
"d. c #89A6A6",
"f. c #8BABAA",
"g. c #94A3A6",
"h. c #92ADAD",
"j. c #99B6B5",
"k. c #99B8B7",
"l. c #9EBAB9",
"z. c #95B5B4",
"x. c #A3AFB2",
"c. c #AFBAB4",
"v. c #A6B6B8",
"b. c #A9B7B9",
"n. c #A2B9B9",
"m. c #ABBABB",
"M. c #B0BFBF",
"N. c #B4C1BD",
"B. c #BAC4BB",
"V. c #AEC1C1",
"C. c #AFC2C2",
"Z. c #B2C6C6",
"A. c #B5C3C4",
"S. c #B8C7C6",
"D. c #B6C9C9",
/* pixels */
"                                                                                                                                ",
"                                                                                                                                ",
"                                                                                                                                ",
"                                                                                                                                ",
"                                                                                                                                ",
"                                                                                                                                ",
"                                                                                                                                ",
"                                                                                                                                ",
"                                                                                                                                ",
"                                                                                                                                ",
"                                                                                                                                ",
"                                                                                                                                ",
"                                                                                                                                ",
"                                                                                                                                ",
"                                                                                                                                ",
"                                                                                                                                ",
"                                                                                                                                ",
"                                                                                                                                ",
"                                                                                                                                ",
"                                                                                                                                ",
"                                                                                                                                ",
"                                                                                                                                ",
"                                                                                                                                ",
"                                                                                                                                ",
"                                      % % % % % % ; % % % % % % % % % % % & % % % % & * %                                       ",
"                                      = # - = = = = = = = - = = = = - - = = = = = - = = =                                       ",
"                                    g j w w w w w j w w w w w w w j w j w w w w j j w w j k                                     ",
"                                % = h t s s a a a a a a a a a a a a a a a a a a a a i a t h = %                                 ",
"                                % * f r 8 a a 8 a a 8 a a 8 a 8 8 a a 8 a a a 8 7 a a a 7 f * $                                 ",
"                            o $ $ * @ 0 0 0 0 0 0 0 0 0 0 0 0 0 0 0 0 0 0 0 0 0 0 0 0 0 0 + $ $ $ o                             ",
"                          ; ; ; ; ; : : - - - - - - - - - - - - - - - - - - - - : : : : : ; ; > ; ; ;                           ",
"                          I / ( ^ ) ) ) ) ) ) ) ) ) ) ) ) ) ) ) ) ) ) ) ) ) ) ) ) ) ) ) ) ) ) ) ( / I                           ",
"                      % J ..r.a.a.a.a.a.a.g.a.a.a.a.a.a.g.a.a.g.a.a.g.a.a.a.a.a.a.a.a.a.a.a.a.a.a.r...J $                       ",
"                      * K $.b.S.A.c.c.c.b.c.c.c.c.c.m.c.c.c.c.c.c.c.c.c.c.c.c.c.c.c.c.c.c.c.c.N.S.b.$.K %                       ",
"                      $ K q.M.B.i.+.@.@.+.+.+.+.+.+.+.+.+.+.+.+.+.+.+.+.+.+.+.+.+.+.+.+.+.@.+.i.B.M.w.K *                       ",
"                      $ K q.M.p.O.N m M M M M M M M M M M M M M M M M M M M M M M M M M M m N O.p.m.w.K $                       ",
"                      $ K w.b.u.B i u u u u u u u u u u u u u u u u u u u u u u u u u u u 4 4 O.u.b.w.K &                       ",
"                      $ K w.b.u.B 6 2 3 3 3 3 3 3 3 3 3 3 3 3 3 3 3 3 3 3 3 3 3 3 3 3 3 3 2 3 R u.b.w.K *                       ",
"                      $ K w.m.t.R 1 , < 1 1 1 1 1 1 1 1 1 1 1 1 1 1 1 1 1 1 1 1 < < < < < , 1 R t.b.w.K &                       ",
"                      & K w.b.t.E 9 . X X X X X X X X X X X X X X X X X X X X X . 9 9 . 9 . 9 E t.b.w.K $                       ",
"                      $ K q.b.t.W # o X @ + + + @ @ @ + + + + + + + + + + + @ + + + + + @ + @ W y.b.q.K $                       ",
"                      % K q.b.a.) ; $ * & & ; * * * & & = * * $ & * ; * ; * * ; * & * * * * ; ( g.b.q.K *                       ",
"                      * K q.b.a.) ; $ % % ; % & ; % % ; % % & $ $ $ & & & & & & ; % % % & O V ( a.b.q.K %                       ",
"                      $ K q.b.a._ ; $ * & * & & % * & % % * & & & $ & & & * & % % ; % ; ; O ; ( g.b.q.K $                       ",
"                      & K 0.b.a.( ; o $ * % * % $ * % * ; Z A G S Z C ; $ $ $ $ & $ * % $ $ ; ( a.b.0.K $                       ",
"                      $ K 0.b.a./ * o $ $ O $ $ $ $ $ O V P _ X.X._ P > $ $ $ $ O $ $ $ o o * ( a.c.0.K &                       ",
"                      * K q.b.a._ C & ; ; ; ; ; ; ; % ; G [ 5.s.s.5.X.A * ; ; ; : ; ; ; ; $ > _ a.b.0.K $                       ",
"                      = K 0.M.x.$.( / ( ( ( ( ( ( / T P _ >.h.l.n.h.,._ P T ( ( ( ( ( ( ( / _ $.x.M.0.K $                       ",
"                      $ K :.m.S.x.a.a.y.a.y.a.a.a.y.e.,.1.g.m.Z.Z.m.g.1.,.e.y.y.y.a.a.a.a.y.a.x.A.M.0.J $                       ",
"                      % K $.v.D.Z.C.V.V.V.V.V.V.M.m.h.d.d.k.C.D.D.C.k.d.d.z.m.A.M.V.V.C.m.V.V.Z.S.v.$.J %                       ",
"                      * G X.d.k.j.j.k.j.j.k.j.k.k.z.f.9.9.h.l.N.N.k.h.s.9.f.z.k.k.k.j.j.k.k.k.k.k.d...G *                       ",
"                      $ A ` ;.7.4.6.6.6.6.6.6.6.6.6.3.2.3.9.f.h.h.f.8.3.2.2.6.6.6.6.6.6.6.6.6.7.7.;.` A $                       ",
"                      $ Z ~ {  . . .|  .| | | | | |  .&.2.7.s.d.f.s.7.2.&.#. .| | | | | | | |  . .{ ~ Z ;                       ",
"                        C S D U U L D D D D D D D ~ ] #.3.7.s.d.d.s.7.2.%.] U D D D D D D D D D F D S V                         ",
"                          > > > ; > C ; V ; ; : : Z U | ;.7.s.f.d.d.7.-.| U Z - > - ; C : C > ; > > V                           ",
"                          $ $ * # f f f f g f f # g b Y ' =.7.s.9.7.=.' Y b k @ f # f f f f f # @ % $                           ",
"                          % * # q t 7 t r r r 7 7 r y c n ' ;.6.4.-.' n c y t 7 t r r r r 7 t q # % %                           ",
"                          % * g t i p p p i i p p p 6 1 e H } *.*.} H e 1 6 i p p p p p i p i t g * %                           ",
"                          % ; f t p d d d p p d p p u 4 8 v ! Q Q ! v 8 4 u p d d d d d d d p t f * %                           ",
"                          % * g t p d p p p p d p p p i u l z x x z l i u p p p p p p p p d p t k ; %                           ",
"                            ; g y s a s s s s a s s s s s s s s a a s s a s s s a a s s a a 7 y f *                             ",
"                              # j j j j j j j q j j j j q q q q q q w w j j j j j w j j j j j h #                               ",
"                                = = = = - = = = - = - = = = = = = = = = = = : = = = = = = : : =                                 ",
"                                % % & % % % % % % % % % % & & & & & % % % % % % % % % % % % % %                                 "
};
