/* XPM */
static char *_2722a02030148cee0eebcaf1eb35076XPIm2KptW1hMTwkA[] = {
/* columns rows colors chars-per-pixel */
"64 64 13 1 ",
"  c black",
". c #0B1D26",
"X c #0F3D4D",
"o c #0A5766",
"O c #8D020A",
"+ c #E61736",
"@ c #A6760D",
"# c #F9BE3E",
"$ c #2D7980",
"% c #5C9499",
"& c #ADCCCC",
"* c #B2FFF2",
"= c #DAF2EE",
/* pixels */
"                                                                ",
"                                                                ",
"                                                                ",
"                                                                ",
"                                                                ",
"                                                                ",
"                                                                ",
"                                                                ",
"                                                                ",
"                                                                ",
"                                                                ",
"                                                                ",
"              ************************************              ",
"             *oooooooooooooooooooooooooooooooooooo*             ",
"            *o===================================&o*            ",
"           *o=&%%%%%%%%%%%%%%%%%%%%%%%%%%%%%%%%%%&&o*           ",
"           *o&%%................................%%&o*           ",
"           *o&%..................................%&o*           ",
"            o$%..................................%$o            ",
"            .$$..................................$$.            ",
"            .$$..................................$$.            ",
"            .$$..................................$$.            ",
"            .$$..................................$$.            ",
"            .$$..................................$$.            ",
"            .$$..................................$$.            ",
"            .$$..................................$$.            ",
"            .$$..................................$$.            ",
"            .$$..................................$$.            ",
"            .$$...........XXXXXXXXXXXX...........$$.            ",
"            .$$..................................$$.            ",
"            .$$..........XXXXXXooXXXXXX..........$$.            ",
"            .$$..................................$$.            ",
"            .$$.........XXXXXXooooXXXXXX.........$$.            ",
"            .$$..................................$$.            ",
"            .$$........XXXXXXooooooXXXXXX........$$.            ",
"            .$$..................................$$.            ",
"            .$$.......XXXXXXooooooooXXXXXX.......$$.            ",
"            .$$..................................$$.            ",
"            .$$......XXXXXXooooooooooXXXXXX......$$.            ",
"            .$$..................................$$.            ",
"            .$$.....XXXXXXooooooooooooXXXXXX.....$$.            ",
"            .$$..................................$$.            ",
"            .$$....XXXXXXooooooooooooooXXXXXX....$$.            ",
"            .$$..................................$$.            ",
"            .$$...XXXXXXooooooooooooooooXXXXXX...$$.            ",
"            .$$..................................$$.            ",
"            .$$..XXXXXXooooooooooooooooooXXXXXX..$$.            ",
"            .$o..................................o$.            ",
"            .$o.XXXXXXooooooooooooooooooooXXXXXX.o$.            ",
"            .$o..................................o$.            ",
"            .$oXXXXXXooooooooooooooooooooooXXXXXXo$.            ",
"            .oo..................................oo.            ",
"            ........................................            ",
"                                                                ",
"                                                                ",
"                                                                ",
"                                                                ",
"                                                                ",
"                                                                ",
"                                                                ",
"                                                                ",
"                                                                ",
"                                                                ",
"                                                                "
};
