/* XPM */
static char *a59f9c98d9364104b062e77148d48971Tn1yvf3mU76aRRYb[] = {
/* columns rows colors chars-per-pixel */
"64 64 106 2 ",
"   c #0F3D4D",
".  c #0F3C4D",
"X  c #0F3C4C",
"o  c #0F3E4E",
"O  c #0F3F4F",
"+  c #0E4050",
"@  c #0E4150",
"#  c #0E4151",
"$  c #0E4352",
"%  c #0D4555",
"&  c #0D4656",
"*  c #0D4756",
"=  c #0D4757",
"-  c #0C4B5A",
";  c #0C4D5C",
":  c #0C4E5D",
">  c #0C4D5D",
",  c #0E4252",
"<  c #0B5060",
"1  c #0B5362",
"2  c #0B5463",
"3  c #0B5363",
"4  c #0E4454",
"5  c #0A5766",
"6  c #0A5867",
"7  c #0D4655",
"8  c #0A5968",
"9  c #0A5868",
"0  c #0A5665",
"q  c #0A5463",
"w  c #0A5260",
"e  c #0A505F",
"r  c #0A505E",
"t  c #0A515F",
"y  c #0B5261",
"u  c #0A4F5D",
"i  c #0A4957",
"p  c #0A4552",
"a  c #0B4451",
"s  c #0B4654",
"d  c #0B4A58",
"f  c #0C4C5C",
"g  c #0A4956",
"h  c #0A3F4B",
"j  c #0B3743",
"k  c #0B3541",
"l  c #0C3946",
"z  c #0C404E",
"x  c #0D4454",
"c  c #0A5969",
"v  c #0A4451",
"b  c #0A3642",
"n  c #0B2C36",
"m  c #0B2934",
"M  c #0C2E3A",
"N  c #0D3644",
"B  c #0E3C4B",
"V  c #0A5A69",
"C  c #0A414E",
"Z  c #0B313C",
"A  c #0B252F",
"S  c #0B212B",
"D  c #0C2631",
"F  c #0D2E3B",
"G  c #0E3443",
"H  c #0A404C",
"J  c #0B2F3A",
"K  c #0B222B",
"L  c #0B1D26",
"P  c #0C202A",
"I  c #0D2632",
"U  c #0D2C38",
"Y  c #0A404D",
"T  c #0B303A",
"R  c #0B1C25",
"E  c #0C1C26",
"W  c #0C202B",
"Q  c #0C242F",
"!  c #0A424E",
"~  c #0B323D",
"^  c #0B1E27",
"/  c #0B1F28",
"(  c #0B212A",
")  c #0B232D",
"_  c #0B242D",
"`  c #0A5361",
"'  c #0A4A58",
"]  c #0A3844",
"[  c #0A333E",
"{  c #0A313C",
"}  c #0A323D",
"|  c #0A5564",
" . c #0A4653",
".. c #0A434F",
"X. c #0C4E5E",
"o. c #0C4F5E",
"O. c #0C4F5F",
"+. c #0F3E4D",
"@. c #0B242E",
"#. c #0A5261",
"$. c #0B3844",
"%. c #0B333E",
"&. c #0B313D",
"*. c #0A424F",
"=. c #0A5A6A",
"-. c white",
/* pixels */
"      . X X X X X X X X X X X X X X X X X X X X X X X X X X X X         X X X X X X X X X X X X X X X X X X X X X X X X X X X X ",
"                                                                                                                                ",
"      o O + @ # @ @ @ @ @ @ @ @ @ @ @ @ @ @ @ @ @ @ @ @ # @ + O o     o O + @ # @ @ @ @ @ @ @ @ @ @ @ @ @ @ @ @ @ @ @ @ @ @ @ @ ",
".   o + $ % & * & & & & & & & & & & & & & & & & & & & & * & % $ + o o + $ % & * & & & & & & & & & & & & & & & & & & & & & & & & ",
"X   O $ = - ; : > > ; ; ; ; ; ; ; ; ; ; ; ; ; ; ; ; > > : ; - * , O O , * - ; : > > ; ; ; ; ; ; ; ; ; ; ; ; ; ; ; ; ; ; ; ; ; ; ",
"X   + % - < 1 2 2 3 3 3 3 3 3 3 3 3 3 3 3 3 3 3 3 3 3 2 2 1 < - 4 + + 4 - < 1 2 2 3 3 3 3 3 3 3 3 3 3 3 3 3 3 3 3 3 3 3 3 3 3 3 ",
"X   @ & ; 1 5 6 6 5 5 5 5 5 5 5 5 5 5 5 5 5 5 5 5 5 5 6 6 5 1 ; 7 @ @ 7 ; 1 5 6 6 5 5 5 5 5 5 5 5 5 5 5 5 5 5 5 5 5 5 5 5 5 5 5 ",
"X   # * : 2 6 8 8 6 6 6 6 6 6 6 6 6 6 6 6 6 6 6 6 6 6 8 8 6 2 > & # # & > 2 6 8 8 6 6 6 6 6 6 6 6 6 6 6 6 6 6 6 6 6 6 6 6 6 6 6 ",
"X   @ & > 2 6 8 6 6 6 6 6 6 6 6 6 6 6 6 6 6 6 6 6 6 6 6 8 6 2 > 7 # # 7 > 2 6 8 6 6 6 6 6 6 6 6 6 6 6 6 6 6 6 6 6 6 6 6 6 6 6 6 ",
"X   @ & > 3 5 6 6 5 5 5 5 5 5 5 5 5 5 5 5 5 5 5 5 5 5 6 6 5 3 ; 7 # # 7 ; 3 5 6 6 5 5 5 5 5 5 5 5 5 5 5 5 5 5 5 5 5 5 5 5 5 5 5 ",
"X   @ & ; 3 5 6 6 5 5 5 5 5 5 5 5 5 5 5 5 5 5 5 5 5 5 6 6 5 3 ; 7 # # 7 ; 3 5 6 6 5 5 5 5 5 5 5 5 5 5 5 5 5 5 5 5 5 5 5 5 5 5 5 ",
"X   @ & ; 3 5 6 6 5 5 5 5 5 5 5 5 5 5 5 5 5 5 5 5 5 5 6 6 5 3 ; 7 # # 7 ; 3 5 6 6 5 5 5 5 5 5 5 5 5 5 5 5 5 5 5 5 5 5 5 5 5 5 5 ",
"X   @ & ; 3 5 6 6 5 5 5 5 5 5 5 5 5 5 5 5 5 5 5 5 5 5 6 6 5 3 ; 7 # # 7 ; 3 5 6 6 5 5 5 5 5 5 5 5 5 5 5 5 5 5 5 5 5 5 5 5 5 5 5 ",
"X   @ & ; 3 5 6 6 5 5 5 5 5 5 5 5 5 5 5 5 5 5 5 5 5 5 6 6 5 3 ; 7 # # 7 ; 3 5 6 6 5 5 5 5 5 5 5 5 5 5 5 5 5 5 5 5 5 5 5 5 5 5 5 ",
"X   @ & ; 3 5 6 6 5 5 5 5 5 5 5 5 5 5 5 5 5 5 5 5 5 5 6 6 5 3 ; 7 # # 7 ; 3 5 6 6 5 5 5 5 5 5 5 5 5 5 5 5 5 5 5 5 5 5 5 5 5 5 5 ",
"X   @ & ; 3 5 6 6 5 5 6 6 6 9 6 6 6 6 6 6 9 6 6 6 5 5 6 6 5 3 ; 7 # # 7 ; 3 5 6 6 5 5 6 6 6 9 6 6 6 6 6 6 9 6 6 6 5 5 5 5 5 5 5 ",
"X   @ & ; 3 5 6 6 5 5 6 6 8 8 8 6 6 6 6 8 8 8 6 6 5 5 6 6 5 3 ; 7 # # 7 ; 3 5 6 6 5 5 6 6 8 8 8 6 6 6 6 8 8 8 6 6 5 5 5 5 5 5 5 ",
"X   @ & ; 3 5 6 6 5 5 5 5 5 5 5 5 5 5 5 5 5 5 5 5 5 5 6 6 5 3 ; 7 # # 7 ; 3 5 6 6 5 5 5 5 5 5 5 5 5 5 5 5 5 5 5 5 5 5 5 5 5 5 5 ",
"X   @ & ; 3 5 6 6 5 0 q w e r t y 1 1 y t r e w q 0 5 6 6 5 3 ; 7 # # 7 ; 3 5 6 6 5 0 q w e r t y 1 1 y t r e w q 0 5 5 5 5 5 5 ",
"X   @ & ; 3 5 6 6 5 q u i p a s d f f d s a p i u q 5 6 6 5 3 ; 7 # # 7 ; 3 5 6 6 5 q u i p a s d f f d s a p i u q 5 6 6 5 5 5 ",
"X   @ & ; 3 5 8 8 5 w g h j k l z x x z l k j h g w 5 8 8 5 3 ; 7 # # 7 ; 3 5 8 8 5 w g h j k l z x x z l k j h g w 5 6 6 5 5 5 ",
"X   @ & ; 3 5 8 c 5 r v b n m M N B B N M m n b v r 5 c 8 5 3 ; 7 # # 7 ; 3 5 8 c 5 r v b n m M N B B N M m n b v r 5 8 6 5 5 5 ",
"X   @ & ; 3 5 c V 5 u C Z A S D F G G F D S A Z C u 5 V c 5 3 ; 7 # # 7 ; 3 5 c V 5 u C Z A S D F G G F D S A Z C u 5 8 9 5 5 5 ",
"X   @ & ; 3 5 V V 5 u H J K L P I U U I P L K J H u 5 V V 5 3 ; 7 # # 7 ; 3 5 V V 5 u H J K L P I U U I P L K J H u 5 8 8 5 5 5 ",
"X   @ & ; 3 5 V V 5 u Y T K R E W Q Q W E R K T Y u 5 V V 5 3 ; 7 # # 7 ; 3 5 V V 5 u Y T K R E W Q Q W E R K T Y u 5 8 8 5 5 5 ",
"X   @ & ; 3 5 c V 5 u ! ~ A ^ L / ( ( / L ^ A ~ ! u 5 V c 5 3 ; 7 # # 7 ; 3 5 c V 5 u ! ~ A ^ L / ( ( / L ^ A ~ ! u 5 8 9 5 5 5 ",
"X   @ & > 3 5 8 V 5 e p j n A ) _ A A _ ) A n j p e 5 V 8 5 3 ; 7 # # 7 ; 3 5 8 V 5 e p j n A ) _ A A _ ) A n j p e 5 8 9 5 5 5 ",
"X   @ & > 2 6 V V 6 ` ' Y ] [ { { } } { { [ ] Y ' ` 6 V V 6 2 > 7 # # 7 > 2 6 V V 6 ` ' Y ] [ { { } } { { [ ] Y ' ` 5 8 8 6 6 6 ",
"X   # * : 2 6 8 8 6 | r '  ...! ! ! ! ! ! .. .' r | 6 8 8 6 2 > & # # & > 2 6 8 8 6 | r '  ...! ! ! ! ! ! .. .' r | 6 8 6 6 6 6 ",
"X   @ & ; 1 5 6 6 5 0 q w r u u u u u u u u r w q 0 5 6 6 5 1 ; 7 @ @ 7 ; 1 5 6 6 5 0 q w r u u u u u u u u r w q 0 5 5 5 5 5 5 ",
"X   + % - < 1 2 2 3 1 1 1 1 1 1 1 1 1 1 1 1 1 1 1 1 3 2 2 1 < - 4 + + 4 - < 1 2 2 3 1 1 1 1 1 1 1 1 1 1 1 1 1 1 1 1 3 3 3 3 3 3 ",
"X   O $ * - ; > > ; ; : X.o.o.O.O.o.o.O.O.o.o.X.: ; ; > > ; - * , O O , * - ; > > ; ; : X.o.o.O.O.o.o.O.O.o.o.X.: ; ; ; ; ; ; ; ",
"    o + , 4 7 & 7 7 7 & * = = = = = = = = = = * & 7 7 7 & 7 4 , + o o + , 4 7 & 7 7 7 & * = = = = = = = = = = * & 7 7 7 7 7 7 7 ",
"      o O + @ # # # # # # # # # # # # # # # # # # # # # # @ + O o +.+.o O + @ # # # # # # # # # # # # # # # # # # # # @ @ # # # ",
"      o O + @ # # # # # # # # # # # # # # # # # # # # # # @ + O o +.+.o O + @ # # # # # # # # # # # # # # # # # # # # # # # # # ",
"    o + , 4 7 & 7 7 7 7 7 7 7 7 7 7 7 7 7 7 7 7 7 7 7 7 & 7 4 , + o o + , 4 7 & 7 7 7 7 7 7 7 7 7 7 7 7 7 7 7 7 7 7 7 7 7 7 7 7 ",
"X   O $ * - ; > > ; ; ; ; ; ; ; ; ; ; ; ; ; ; ; ; ; ; > > ; - * , O O , * - ; > > ; ; ; ; ; ; ; ; ; ; ; ; ; ; ; ; ; ; ; ; ; ; ; ",
"X   + % - < 1 2 2 3 3 3 3 3 3 3 3 3 3 3 3 3 3 3 3 3 3 2 2 1 < - 4 + + 4 - < 1 2 2 3 3 3 3 3 3 3 3 3 3 3 3 3 3 3 3 3 3 3 3 3 3 3 ",
"X   @ & ; 1 5 6 6 5 5 5 5 5 5 5 5 5 5 5 5 5 5 5 5 5 5 6 6 5 1 ; 7 @ @ 7 ; 1 5 6 6 5 5 5 5 5 5 5 5 5 5 5 5 5 5 5 5 5 5 5 5 5 5 5 ",
"X   # * : 2 6 8 8 6 6 6 6 6 6 6 6 6 6 6 6 6 6 6 6 6 6 8 8 6 2 > & # # & > 2 6 8 8 6 6 6 6 6 6 6 6 6 6 6 6 6 6 6 6 6 6 6 6 6 6 6 ",
"X   @ & > 2 6 8 6 6 6 6 6 6 6 6 6 6 6 6 6 6 6 6 6 6 6 6 8 6 2 > 7 # # 7 > 2 6 8 6 6 6 6 6 6 6 6 6 6 6 6 6 6 6 6 6 6 6 6 6 6 6 6 ",
"X   @ & > 3 5 6 6 5 5 5 5 5 5 5 5 5 5 5 5 5 5 5 5 5 5 6 6 5 3 ; 7 # # 7 ; 3 5 6 6 5 5 5 5 5 5 5 5 5 5 5 5 5 5 5 5 5 5 5 5 5 5 5 ",
"X   @ & ; 3 5 6 6 5 5 5 5 5 5 5 5 5 5 5 5 5 5 5 5 5 5 6 6 5 3 ; 7 # # 7 ; 3 5 6 6 5 5 5 5 5 5 5 5 5 5 5 5 5 5 5 5 5 5 5 5 5 5 5 ",
"X   @ & ; 3 5 6 6 5 5 5 5 5 5 5 5 5 5 5 5 5 5 5 5 5 5 6 6 5 3 ; 7 # # 7 ; 3 5 6 6 5 5 5 5 5 5 5 5 5 5 5 5 5 5 5 5 5 5 5 5 5 5 5 ",
"X   @ & ; 3 5 6 6 5 5 5 5 5 5 5 5 5 5 5 5 5 5 5 5 5 5 6 6 5 3 ; 7 # # 7 ; 3 5 6 6 5 5 5 5 5 5 5 5 5 5 5 5 5 5 5 5 5 5 5 5 5 5 5 ",
"X   @ & ; 3 5 6 6 5 5 5 5 5 5 5 5 5 5 5 5 5 5 5 5 5 5 6 6 5 3 ; 7 # # 7 ; 3 5 6 6 5 5 5 5 5 5 5 5 5 5 5 5 5 5 5 5 5 5 5 5 5 5 5 ",
"X   @ & ; 3 5 6 6 5 5 5 5 5 5 5 5 5 5 5 5 5 5 5 5 5 5 6 6 5 3 ; 7 # # 7 ; 3 5 6 6 5 5 5 5 5 5 5 5 5 5 5 5 5 5 5 5 5 5 5 5 5 5 5 ",
"X   @ & ; 3 5 6 6 5 5 6 6 6 9 6 6 6 6 6 6 9 6 6 6 5 5 6 6 5 3 ; 7 # # 7 ; 3 5 6 6 5 5 6 6 6 9 6 6 6 6 6 6 9 6 6 6 5 5 5 5 5 5 5 ",
"X   @ & ; 3 5 6 6 5 5 6 6 8 8 8 6 6 6 6 8 8 8 6 6 5 5 6 6 5 3 ; 7 # # 7 ; 3 5 6 6 5 5 6 6 8 8 8 6 6 6 6 8 8 8 6 6 5 5 5 5 5 5 5 ",
"X   @ & ; 3 5 6 6 5 5 5 5 5 5 5 5 5 5 5 5 5 5 5 5 5 5 6 6 5 3 ; 7 # # 7 ; 3 5 6 6 5 5 5 5 5 5 5 5 5 5 5 5 5 5 5 5 5 5 5 5 5 5 5 ",
"X   @ & ; 3 5 6 6 5 0 q w e r t y 1 1 y t r e w q 0 5 6 6 5 3 ; 7 # # 7 ; 3 5 6 6 5 0 q w e r t y 1 1 y t r e w q 0 5 5 5 5 5 5 ",
"X   @ & ; 3 5 6 6 5 q u i p a s d f f d s a p i u q 5 6 6 5 3 ; 7 # # 7 ; 3 5 6 6 5 q u i p a s d f f d s a p i u q 5 6 6 5 5 5 ",
"X   @ & ; 3 5 8 8 5 w g h j k l z x x z l k j h g w 5 8 8 5 3 ; 7 # # 7 ; 3 5 8 8 5 w g h j k l z x x z l k j h g w 5 6 6 5 5 5 ",
"X   @ & ; 3 5 8 c 5 r v b n m M N B B N M m n b v r 5 c 8 5 3 ; 7 # # 7 ; 3 5 8 c 5 r v b n m M N B B N M m n b v r 5 8 6 5 5 5 ",
"X   @ & ; 3 5 c V 5 u C Z A S D F G G F D S A Z C u 5 V c 5 3 ; 7 # # 7 ; 3 5 c V 5 u C Z A S D F G G F D S A Z C u 5 8 9 5 5 5 ",
"X   @ & ; 3 5 V V 5 u H J K L P I U U I P L K J H u 5 V V 5 3 ; 7 # # 7 ; 3 5 V V 5 u H J K L P I U U I P L K J H u 5 8 8 5 5 5 ",
"X   @ & ; 3 5 V V 5 u Y T K R E W Q Q W E R K T Y u 5 V V 5 3 ; 7 # # 7 ; 3 5 V V 5 u Y T K R E W Q Q W E R K T Y u 5 8 8 5 5 5 ",
"X   @ & ; 3 5 c V 5 u ! ~ A ^ L / ( ( / L ^ A ~ ! u 5 V c 5 3 ; 7 # # 7 ; 3 5 c V 5 u ! ~ A ^ L / ( ( / L ^ A ~ ! u 5 8 9 5 5 5 ",
"X   @ & ; 3 5 8 c 5 e p j n A ) @.A A @.) A n j p e 5 c 8 5 3 ; 7 # # 7 ; 3 5 8 c 5 e p j n A ) @.A A @.) A n j p e 5 8 6 5 5 5 ",
"X   @ & ; 3 5 8 8 5 #.' Y $.%.&.&.~ ~ &.&.%.$.Y ' #.5 8 8 5 3 ; 7 # # 7 ; 3 5 8 8 5 #.' Y $.%.&.&.~ ~ &.&.%.$.Y ' #.5 6 6 5 5 5 ",
"X   @ & ; 3 5 6 6 5 q r ' p *.C C ! ! C C *.p ' r q 5 6 6 5 3 ; 7 # # 7 ; 3 5 6 6 5 q r ' p *.C C ! ! C C *.p ' r q 5 6 6 5 5 5 ",
"X   @ & ; 3 5 6 6 5 0 q #.r u u u u u u u u r #.q 0 5 6 6 5 3 ; 7 # # 7 ; 3 5 6 6 5 0 q #.r u u u u u u u u r #.q 0 5 5 5 5 5 5 ",
"X   @ & ; 3 5 6 6 5 5 5 5 5 5 5 5 5 5 5 5 5 5 5 5 5 5 6 6 5 3 ; 7 # # 7 ; 3 5 6 6 5 5 5 5 5 5 5 5 5 5 5 5 5 5 5 5 5 5 5 5 5 5 5 ",
"X   @ & ; 3 5 6 6 5 5 6 8 V =.=.=.=.=.=.=.=.V 8 6 5 5 6 6 5 3 ; 7 # # 7 ; 3 5 6 6 5 5 6 8 V =.=.=.=.=.=.=.=.V 8 6 5 5 5 5 5 5 5 "
};
