/* XPM */
static char *daafb8fd284d42cca17095b1ea330c41GmpZlO4ReON1K2Vy[] = {
/* columns rows colors chars-per-pixel */
"64 64 21 1 ",
"  c black",
". c #241617",
"X c #4A2F29",
"o c #4E2834",
"O c #5E646A",
"+ c #6A6064",
"@ c #B73A3E",
"# c #8D5D3E",
"$ c #C44C3C",
"% c #D9593C",
"& c #943A44",
"* c #AE7340",
"= c #FF7B5D",
"- c #BB8D43",
"; c #CFA344",
": c #F8CA66",
"> c #8196A2",
", c #A2CBE5",
"< c #B4DEF8",
"1 c #E0F3FF",
"2 c white",
/* pixels */
"                                                                ",
"                                                                ",
"                                                                ",
"                                                                ",
"                                                                ",
"                                                                ",
"                             o.....o                            ",
"                           .o@$$%%%$o.                          ",
"          .               o@@$@%%%=%$$o               .         ",
"         ..              .@@$@@%%===%$$.              ..        ",
"        .1.              .@@$@@%%%==%$$.              .1.       ",
"       .11.             .&@@$$@@%%%%$$$&.             .11.      ",
"      O<11.            o.&&@@$$@@@@@$$$@.o            .11<O     ",
"      O11<.            ..o&&@@$$@@@$$$@o..            .<11O     ",
"     O211,.            .&..oo@@$$$$@oo..&.            .,112O    ",
"     O11<,.            .@@$%$ooooooo$%$@@.            .,<11O    ",
"     O11,,.             .&@%%%%%%%%%%%@&.             .,<11O    ",
"    O,11,.              o....@$%%%$@....o              .<11,O   ",
"    O<1<,.               .o.o.......o.o.               .<<1<O   ",
"    O11,,.               .&.&.o...o.&.&.               .,<11O   ",
"    O11,,.              o&&.$.@...@.$.&&o              .,<11O   ",
"    O11,,.              .&&.%.$...$.%.&&.              .,<11O   ",
"    O11,,.          .....&&$%.%...%.%$&@.....          .,<11O   ",
"    O11,,.        o.@$%$.&@&$.%...%.$&%@.--;-.o        .,<11O   ",
"    O11,,.        .@$%%%.&@&&$%...%$&@=&.--;:-.        .,<11O   ",
"    O<1<,.       .@$$%==%.&&@&$$$$$&%=@.*-;:::-.       .<<1<O   ",
"    O,11,.       .@$$$%==$.&@&&&&&&@=@.#*;;;:;;.       .<11,O   ",
"     O11<.       .&@$$$$$.o.o&@$$%%@o.o.**;;;-*.       .<11O    ",
"     O<11,.      o...&@$...*#ooooooo#*...**-...o      .,11<O    ",
"      O11,.       ..&...o&@o*****--;:o@&o...&..       .,11O     ",
"      O<11,.      o.@&o..&@@ooooooooo@@&..o&@.o      .,11<O     ",
"       O11,.       .%&&..&@$$$$$$%===%@&..&&%.       .,11O      ",
"       O<11<.      .%@&.X.@$$%%%%%%==$@.o.&@%.      .<11<O      ",
"        O111<.    .&%@&.X#o@$$%$@$%%$@o&o.&@%&.    .<111O       ",
"         O111<.. ..%@@&.X##ooooooooooo&&o.&@@%.. ..<111O        ",
"          .111,,.OO.@@&.X#*o&@@@$$%=$o@&o.&@@.OO.,,111.         ",
"           .<11,,.>O..&.X#*-o&@$%%==o%@&o.&..O>.,,11<.          ",
"            ..,,,>>O.%.o.#--:o@$$%=o==%&.o.%.O>>,,,..           ",
"              ...>O.@$. o.-;:o$$$%%o%=$.o .$@.O>...             ",
"              .OOO.... o...;;ooooooo$%...o ....OOO.             ",
"               .O.@..o..$@&..o&@$$$@..*--..o..@.O.              ",
"                ..o@...$$$@&.&@$===$.#--;:...@o..               ",
"                .o%o@.$%%$$@.@$%%==%.*--;::.@o%o.               ",
"                 .o%o.%%%%$@.$$%%%=%.#*-;;:.o%o.                ",
"                  .. .%%%$oo.@$$%%%$.oo*--;. ..                 ",
"                     ooooo&&.o@$$%$o.&&ooooo                    ",
"                       o.$@&o..@$$..o&@$.o                      ",
"                       .$%$.   ooo   .$%$.                      ",
"                      .$%$.           .$%$.                     ",
"                     .%%$.             .$%%.                    ",
"                     .%$@.             .@$%.                    ",
"                     .%%$.             .$%%.                    ",
"                      .$$@.           .@$$.                     ",
"                       .$$@.         .@$$.                      ",
"                        .&$&.       .&$&.                       ",
"                        .$@&&o     o&&@$.                       ",
"                    o...oo&&&.+++++.&&&oo...o                   ",
"                  +o$===$$$@&.+++++.&@@$$%%==o+                 ",
"                 +o$==%$$%$@&o+++++o&@$%%$%%==o+                ",
"                ++.$%$$$%$@..+++++++..@$%%$$%=.++               ",
"                ++.&@@@@&&.o+++++++++o.&&@@@@&.++               ",
"                ++o.......+++++++++++++.......o++               ",
"                 +++++++++++++++++++++++++++++++                ",
"                  +++++++++++++++++++++++++++++                 "
};
